<?xml version="1.0" encoding="UTF-8" standalone="no"?>
<svg
   viewBox="0 0 1300 300"
   role="img"
   aria-labelledby="title desc"
   version="1.1"
   id="svg8"
   xmlns="http://www.w3.org/2000/svg"
   xmlns:svg="http://www.w3.org/2000/svg">
  <title
     id="title">LoopCodeLab primary horizontal logo</title>
  <desc
     id="desc">Horizontal logo for website headers, banners and signage.</desc>
  <defs
     id="defs3">
    <linearGradient
       id="brandGradient"
       x1="75"
       y1="55"
       x2="350"
       y2="175"
       gradientUnits="userSpaceOnUse">
      <stop
         offset="0%"
         stop-color="#6C2CF2"
         id="stop1" />
      <stop
         offset="52%"
         stop-color="#4069F5"
         id="stop2" />
      <stop
         offset="100%"
         stop-color="#10C9DE"
         id="stop3" />
    </linearGradient>
    <marker
       id="brandArrow"
       markerWidth="38"
       markerHeight="38"
       refX="29"
       refY="19"
       orient="auto"
       markerUnits="userSpaceOnUse">
      <path
         d="M4 5 L33 19 L4 33 Z"
         fill="#4069F5"
         id="path3" />
    </marker>
  </defs>
  <g
     transform="translate(-30 -8) scale(1.33)"
     id="g8">
    <path
       d="   M295 48   C335 48 353 82 342 116   C331 150 296 168 260 151   C225 135 206 84 163 67   C121 50 77 75 76 116   C75 153 106 177 140 172   C178 166 204 128 230 108"
       fill="none"
       stroke="url(#brandGradient)"
       stroke-width="36"
       stroke-linecap="round"
       stroke-linejoin="round"
       
       id="path4" />
<path id="integrated-arrow" d="M214 87 L254 103 L221 133 Z" fill="#4069F5"/>

    <g
       fill="none"
       stroke="#08164A"
       stroke-width="8.5"
       stroke-linecap="round"
       stroke-linejoin="round"
       id="g7">
      <path
         d="M115 100 L98 116 L115 132"
         id="path5" />
      <path
         d="M148 100 L165 116 L148 132"
         id="path6" />
      <path
         d="M138 93 L126 139"
         id="path7" />
    </g>
  </g>
  <path
     d="m 573.288,194 q -1.936,0 -3.256,-1.32 -1.232,-1.32 -1.232,-3.256 v -59.576 q 0,-1.936 1.32,-3.256 1.32,-1.32 3.168,-1.32 1.936,0 3.256,1.32 1.32,1.32 1.32,3.256 v 55 h 31.856 q 1.936,0 3.256,1.32 1.32,1.32 1.32,3.256 0,1.936 -1.32,3.256 -1.32,1.32 -3.256,1.32 z m 71.55202,0.352 q -7.04,0 -12.584,-3.08 -5.544,-3.168 -8.624,-8.712 -3.08,-5.544 -3.08,-12.584 0,-7.128 3.08,-12.672 3.08,-5.544 8.624,-8.624 5.544,-3.168 12.584,-3.168 6.952,0 12.408,3.168 5.544,3.08 8.624,8.624 3.168,5.544 3.168,12.672 0,7.04 -3.08,12.584 -3.08,5.544 -8.624,8.712 -5.456,3.08 -12.496,3.08 z m 0,-7.92 q 4.488,0 8.008,-2.112 3.608,-2.112 5.544,-5.808 2.024,-3.784 2.024,-8.536 0,-4.752 -2.024,-8.536 -1.936,-3.784 -5.544,-5.896 -3.52,-2.112 -8.008,-2.112 -4.488,0 -8.096,2.112 -3.52,2.112 -5.544,5.896 -2.024,3.784 -2.024,8.536 0,4.752 2.024,8.536 2.024,3.696 5.544,5.808 3.608,2.112 8.096,2.112 z m 57.99993,7.92 q -7.04,0 -12.584,-3.08 -5.544,-3.168 -8.624,-8.712 -3.08,-5.544 -3.08,-12.584 0,-7.128 3.08,-12.672 3.08,-5.544 8.624,-8.624 5.544,-3.168 12.584,-3.168 6.952,0 12.408,3.168 5.544,3.08 8.624,8.624 3.168,5.544 3.168,12.672 0,7.04 -3.08,12.584 -3.08,5.544 -8.624,8.712 -5.456,3.08 -12.496,3.08 z m 0,-7.92 q 4.488,0 8.008,-2.112 3.608,-2.112 5.544,-5.808 2.024,-3.784 2.024,-8.536 0,-4.752 -2.024,-8.536 -1.936,-3.784 -5.544,-5.896 -3.52,-2.112 -8.008,-2.112 -4.488,0 -8.096,2.112 -3.52,2.112 -5.544,5.896 -2.024,3.784 -2.024,8.536 0,4.752 2.024,8.536 2.024,3.696 5.544,5.808 3.608,2.112 8.096,2.112 z m 60.37594,-40.92 q 6.776,0 12.32,3.256 5.632,3.168 8.8,8.8 3.168,5.544 3.168,12.408 0,6.864 -2.992,12.496 -2.904,5.544 -8.096,8.712 -5.104,3.168 -11.44,3.168 -5.104,0 -9.504,-2.112 -4.4,-2.112 -7.48,-5.896 v 23.76 q 0,2.024 -1.232,3.256 -1.232,1.232 -3.256,1.232 -1.936,0 -3.256,-1.232 -1.232,-1.232 -1.232,-3.256 v -40.128 q 0,-6.864 3.168,-12.408 3.256,-5.632 8.712,-8.8 5.544,-3.256 12.32,-3.256 z m 0,40.92 q 4.4,0 7.92,-2.112 3.608,-2.2 5.632,-5.896 2.112,-3.784 2.112,-8.448 0,-4.664 -2.112,-8.448 -2.024,-3.784 -5.632,-5.896 -3.52,-2.2 -7.92,-2.2 -4.4,0 -8.008,2.2 -3.52,2.112 -5.544,5.896 -2.024,3.784 -2.024,8.448 0,4.664 2.024,8.448 2.024,3.696 5.544,5.896 3.608,2.112 8.008,2.112 z m 67.94391,8.448 q -9.416,0 -17.248,-4.664 -7.744,-4.664 -12.232,-12.76 -4.488,-8.096 -4.488,-17.864 0,-9.68 4.488,-17.688 4.488,-8.096 12.232,-12.76 7.832,-4.752 17.248,-4.752 6.688,0 11.528,1.76 4.928,1.76 9.944,5.808 1.056,0.792 1.408,1.672 0.352,0.792 0.352,1.936 0,1.76 -1.32,2.904 -1.232,1.144 -2.904,1.144 -1.672,0 -3.08,-1.144 -3.608,-3.08 -7.04,-4.4 -3.432,-1.408 -8.888,-1.408 -6.864,0 -12.672,3.608 -5.72,3.608 -9.152,9.856 -3.344,6.16 -3.344,13.464 0,7.392 3.344,13.552 3.432,6.16 9.152,9.768 5.808,3.608 12.672,3.608 8.448,0 16.192,-5.808 1.496,-1.056 2.904,-1.056 1.672,0 2.728,1.232 1.144,1.144 1.144,3.08 0,1.848 -1.408,3.256 -9.504,7.656 -21.56,7.656 z m 53.59998,-0.528 q -7.04,0 -12.584,-3.08 -5.544,-3.168 -8.624,-8.712 -3.08,-5.544 -3.08,-12.584 0,-7.128 3.08,-12.672 3.08,-5.544 8.624,-8.624 5.544,-3.168 12.584,-3.168 6.952,0 12.408,3.168 5.544,3.08 8.624,8.624 3.168,5.544 3.168,12.672 0,7.04 -3.08,12.584 -3.08,5.544 -8.624,8.712 -5.456,3.08 -12.496,3.08 z m 0,-7.92 q 4.488,0 8.008,-2.112 3.608,-2.112 5.544,-5.808 2.024,-3.784 2.024,-8.536 0,-4.752 -2.024,-8.536 -1.936,-3.784 -5.544,-5.896 -3.52,-2.112 -8.008,-2.112 -4.488,0 -8.096,2.112 -3.52,2.112 -5.544,5.896 -2.024,3.784 -2.024,8.536 0,4.752 2.024,8.536 2.024,3.696 5.544,5.808 3.608,2.112 8.096,2.112 z m 77.71191,-61.16 q 2.024,0 3.256,1.232 1.232,1.232 1.232,3.256 v 40.128 q 0,6.864 -3.256,12.496 -3.168,5.544 -8.712,8.8 -5.456,3.168 -12.232,3.168 -6.776,0 -12.408,-3.168 -5.544,-3.256 -8.712,-8.8 -3.168,-5.632 -3.168,-12.496 0,-6.864 2.904,-12.408 2.992,-5.632 8.096,-8.8 5.192,-3.168 11.528,-3.168 5.104,0 9.504,2.112 4.4,2.112 7.48,5.896 v -23.76 q 0,-2.024 1.232,-3.256 1.32,-1.232 3.256,-1.232 z m -19.712,61.16 q 4.4,0 7.92,-2.112 3.608,-2.2 5.632,-5.984 2.024,-3.784 2.024,-8.448 0,-4.664 -2.024,-8.36 -2.024,-3.784 -5.632,-5.896 -3.52,-2.2 -7.92,-2.2 -4.4,0 -8.008,2.2 -3.52,2.112 -5.632,5.896 -2.024,3.696 -2.024,8.36 0,4.664 2.024,8.448 2.112,3.784 5.632,5.984 3.608,2.112 8.008,2.112 z m 81.84791,-17.248 q 0,1.672 -1.144,2.816 -1.144,1.056 -2.904,1.056 h -33.43999 q 0.968,6.16 5.544,9.944 4.664,3.784 11.35199,3.784 2.64,0 5.456,-0.968 2.904,-0.968 4.752,-2.376 1.232,-0.968 2.904,-0.968 1.672,0 2.64,0.88 1.584,1.32 1.584,2.992 0,1.584 -1.408,2.64 -2.992,2.376 -7.48,3.872 -4.4,1.496 -8.448,1.496 -7.21599,0 -12.93599,-3.08 -5.72,-3.168 -8.976,-8.712 -3.168,-5.544 -3.168,-12.584 0,-7.04 2.992,-12.584 3.08,-5.632 8.448,-8.712 5.456,-3.168 12.31999,-3.168 6.776,0 11.704,2.992 4.928,2.992 7.568,8.36 2.64,5.368 2.64,12.32 z m -21.912,-16.104 q -6.42399,0 -10.47199,3.52 -3.96,3.52 -5.016,9.416 h 29.30399 q -0.792,-5.896 -4.4,-9.416 -3.608,-3.52 -9.416,-3.52 z m 37.32,40.92 q -1.936,0 -3.256,-1.32 -1.232,-1.32 -1.232,-3.256 v -59.576 q 0,-1.936 1.32,-3.256 1.32,-1.32 3.168,-1.32 1.936,0 3.256,1.32 1.32,1.32 1.32,3.256 v 55 h 31.856 q 1.936,0 3.256,1.32 1.32,1.32 1.32,3.256 0,1.936 -1.32,3.256 -1.32,1.32 -3.256,1.32 z m 71.5521,-48.488 q 6.776,0 12.232,3.256 5.544,3.168 8.712,8.8 3.256,5.544 3.256,12.408 V 189.6 q 0,1.936 -1.32,3.256 -1.232,1.232 -3.168,1.232 -1.936,0 -3.256,-1.232 -1.232,-1.32 -1.232,-3.256 v -3.256 q -3.08,3.784 -7.48,5.896 -4.4,2.112 -9.504,2.112 -6.336,0 -11.528,-3.168 -5.104,-3.168 -8.096,-8.712 -2.904,-5.632 -2.904,-12.496 0,-6.864 3.168,-12.408 3.168,-5.632 8.712,-8.8 5.632,-3.256 12.408,-3.256 z m 0,40.92 q 4.4,0 7.92,-2.112 3.608,-2.2 5.632,-5.896 2.024,-3.784 2.024,-8.448 0,-4.664 -2.024,-8.448 -2.024,-3.784 -5.632,-5.896 -3.52,-2.2 -7.92,-2.2 -4.4,0 -8.008,2.2 -3.52,2.112 -5.632,5.896 -2.024,3.784 -2.024,8.448 0,4.664 2.024,8.448 2.112,3.696 5.632,5.896 3.608,2.112 8.008,2.112 z m 62.1359,-40.92 q 6.336,0 11.44,3.168 5.192,3.168 8.096,8.8 2.992,5.544 2.992,12.408 0,6.864 -3.168,12.496 -3.168,5.544 -8.8,8.8 -5.544,3.168 -12.32,3.168 -6.776,0 -12.32,-3.168 -5.456,-3.256 -8.712,-8.8 -3.168,-5.632 -3.168,-12.496 V 129.76 q 0,-2.024 1.232,-3.256 1.32,-1.232 3.256,-1.232 2.024,0 3.256,1.232 1.232,1.232 1.232,3.256 v 23.76 q 3.08,-3.784 7.48,-5.896 4.4,-2.112 9.504,-2.112 z m -1.76,40.92 q 4.4,0 7.92,-2.112 3.608,-2.2 5.632,-5.984 2.112,-3.784 2.112,-8.448 0,-4.664 -2.112,-8.36 -2.024,-3.784 -5.632,-5.896 -3.52,-2.2 -7.92,-2.2 -4.4,0 -8.008,2.2 -3.52,2.112 -5.544,5.896 -2.024,3.696 -2.024,8.36 0,4.664 2.024,8.448 2.024,3.784 5.544,5.984 3.608,2.112 8.008,2.112 z"
     id="text8"
     style="font-weight:700;font-size:88px;font-family:Comfortaa;letter-spacing:-1.4;fill:#08164a"
     aria-label="LoopCodeLab" />
</svg>
